# Blender 5.1.2
# www.blender.org
mtllib enderman.mtl
o Cube
v 1.000000 0.794891 -1.000000
v 1.000000 -1.037812 -1.000000
v 1.000000 0.794891 1.000000
v 1.000000 -1.037812 1.000000
v -1.000000 0.794891 -1.000000
v -1.000000 -1.037812 -1.000000
v -1.000000 0.794891 1.000000
v -1.000000 -1.037812 1.000000
vn -0.0000 1.0000 -0.0000
vn -0.0000 -0.0000 1.0000
vn -1.0000 -0.0000 -0.0000
vn -0.0000 -1.0000 -0.0000
vn 1.0000 -0.0000 -0.0000
vn -0.0000 -0.0000 -1.0000
vt 0.185921 0.035589
vt 0.330571 0.035589
vt 0.330571 0.321041
vt 0.185921 0.321041
vt 0.267943 0.503285
vt 0.267943 0.800113
vt 0.117528 0.800113
vt 0.117528 0.503285
vt 0.338279 0.334349
vt 0.338279 0.048897
vt 0.193628 0.048897
vt 0.193628 0.334349
vt 0.336352 0.029886
vt 0.191701 0.029886
vt 0.191701 0.315337
vt 0.336352 0.315337
vt 0.196518 0.313436
vt 0.196518 0.027985
vt 0.341169 0.027985
vt 0.341169 0.313436
vt 0.332498 0.328645
vt 0.332498 0.043194
vt 0.187847 0.043194
vt 0.187847 0.328645
s 0
usemtl Material
f 1/1/1 5/2/1 7/3/1 3/4/1
f 4/5/2 3/6/2 7/7/2 8/8/2
f 8/9/3 7/10/3 5/11/3 6/12/3
f 6/13/4 2/14/4 4/15/4 8/16/4
f 2/17/5 1/18/5 3/19/5 4/20/5
f 6/21/6 5/22/6 1/23/6 2/24/6
o Cubo
v -0.778880 -3.058809 0.726697
v -0.778880 -1.020260 0.726697
v -0.778880 -3.058809 -0.726697
v -0.778880 -1.020260 -0.726697
v 0.778880 -3.058809 0.726697
v 0.778880 -1.020260 0.726697
v 0.778880 -3.058809 -0.726697
v 0.778880 -1.020260 -0.726697
vn -1.0000 -0.0000 -0.0000
vn -0.0000 -0.0000 -1.0000
vn 1.0000 -0.0000 -0.0000
vn -0.0000 -0.0000 1.0000
vn -0.0000 -1.0000 -0.0000
vn -0.0000 1.0000 -0.0000
vt 0.181047 0.041687
vt 0.181047 0.308123
vt 0.316062 0.308123
vt 0.316062 0.041687
vt 0.215600 0.033826
vt 0.215600 0.274159
vt 0.337387 0.274159
vt 0.337387 0.033826
vt 0.333461 0.037771
vt 0.333461 0.312039
vt 0.194477 0.312039
vt 0.194477 0.037771
vt 0.323955 0.050826
vt 0.323955 0.310390
vt 0.192423 0.310390
vt 0.192423 0.050826
vt 0.205521 0.295949
vt 0.341685 0.295949
vt 0.341685 0.027245
vt 0.205521 0.027245
vt 0.753372 1.000000
vt 0.246628 1.000000
vt 0.246628 0.000000
vt 0.753372 0.000000
s 0
usemtl Material
f 9/25/7 10/26/7 12/27/7 11/28/7
f 11/29/8 12/30/8 16/31/8 15/32/8
f 15/33/9 16/34/9 14/35/9 13/36/9
f 13/37/10 14/38/10 10/39/10 9/40/10
f 11/41/11 15/42/11 13/43/11 9/44/11
f 16/45/12 12/46/12 10/47/12 14/48/12
o Cubo.001
v 0.796339 -6.501527 -0.146613
v 0.796339 -1.016318 -0.146613
v 0.796339 -6.501527 0.133265
v 0.796339 -1.016318 0.133265
v 1.104333 -6.501527 -0.146613
v 1.104333 -1.016318 -0.146613
v 1.104333 -6.501527 0.133265
v 1.104333 -1.016318 0.133265
vn -1.0000 -0.0000 -0.0000
vn -0.0000 -0.0000 1.0000
vn 1.0000 -0.0000 -0.0000
vn -0.0000 -0.0000 -1.0000
vn -0.0000 -1.0000 -0.0000
vn -0.0000 1.0000 -0.0000
vt 0.204173 0.034091
vt 0.204173 0.292906
vt 0.335326 0.292906
vt 0.335326 0.034091
vt 0.340203 0.024466
vt 0.340203 0.302530
vt 0.199296 0.302530
vt 0.199296 0.024466
s 0
usemtl Material
f 17/49/13 19/52/13 20/51/13 18/50/13
f 19/49/14 23/52/14 24/51/14 20/50/14
f 23/53/15 21/56/15 22/55/15 24/54/15
f 21/52/16 17/49/16 18/50/16 22/51/16
f 19/50/17 17/49/17 21/52/17 23/51/17
f 24/51/18 22/52/18 18/49/18 20/50/18
o Cubo.002
v -1.094172 -6.499429 -0.057768
v -1.094172 -1.014220 -0.057768
v -1.094172 -6.499429 0.222515
v -1.094172 -1.014220 0.222515
v -0.811551 -6.499429 -0.057768
v -0.811551 -1.014220 -0.057768
v -0.811551 -6.499429 0.222515
v -0.811551 -1.014220 0.222515
vn -1.0000 -0.0000 -0.0000
vn -0.0000 -0.0000 1.0000
vn 1.0000 -0.0000 -0.0000
vn -0.0000 -0.0000 -1.0000
vn -0.0000 -1.0000 -0.0000
vn -0.0000 1.0000 -0.0000
vt 0.204173 0.034091
vt 0.204173 0.292906
vt 0.335326 0.292906
vt 0.335326 0.034091
vt 0.340203 0.024466
vt 0.340203 0.302530
vt 0.199296 0.302530
vt 0.199296 0.024466
s 0
usemtl Material
f 25/57/19 27/60/19 28/59/19 26/58/19
f 27/57/20 31/60/20 32/59/20 28/58/20
f 31/61/21 29/64/21 30/63/21 32/62/21
f 29/60/22 25/57/22 26/58/22 30/59/22
f 27/58/23 25/57/23 29/60/23 31/59/23
f 32/59/24 30/60/24 26/57/24 28/58/24
o Cubo.003
v -0.493355 -8.534107 -0.038586
v -0.493355 -3.048898 -0.038586
v -0.493355 -8.534107 0.203332
v -0.493355 -3.048898 0.203332
v -0.225567 -8.534107 -0.038586
v -0.225567 -3.048898 -0.038586
v -0.225567 -8.534107 0.203332
v -0.225567 -3.048898 0.203332
vn -1.0000 -0.0000 -0.0000
vn -0.0000 -0.0000 1.0000
vn 1.0000 -0.0000 -0.0000
vn -0.0000 -0.0000 -1.0000
vn -0.0000 -1.0000 -0.0000
vn -0.0000 1.0000 -0.0000
vt 0.204173 0.034091
vt 0.204173 0.292906
vt 0.335326 0.292906
vt 0.335326 0.034091
vt 0.340203 0.024466
vt 0.340203 0.302530
vt 0.199296 0.302530
vt 0.199296 0.024466
s 0
usemtl Material
f 33/65/25 35/68/25 36/67/25 34/66/25
f 35/65/26 39/68/26 40/67/26 36/66/26
f 39/69/27 37/72/27 38/71/27 40/70/27
f 37/68/28 33/65/28 34/66/28 38/67/28
f 35/66/29 33/65/29 37/68/29 39/67/29
f 40/67/30 38/68/30 34/65/30 36/66/30
o Cubo.004
v 0.080837 -8.552053 -0.046087
v 0.080837 -3.066844 -0.046087
v 0.080837 -8.552053 0.210834
v 0.080837 -3.066844 0.210834
v 0.374287 -8.552053 -0.046087
v 0.374287 -3.066844 -0.046087
v 0.374287 -8.552053 0.210834
v 0.374287 -3.066844 0.210834
vn -1.0000 -0.0000 -0.0000
vn -0.0000 -0.0000 1.0000
vn 1.0000 -0.0000 -0.0000
vn -0.0000 -0.0000 -1.0000
vn -0.0000 -1.0000 -0.0000
vn -0.0000 1.0000 -0.0000
vt 0.204173 0.034091
vt 0.204173 0.292906
vt 0.335326 0.292906
vt 0.335326 0.034091
vt 0.340203 0.024466
vt 0.340203 0.302530
vt 0.199296 0.302530
vt 0.199296 0.024466
s 0
usemtl Material
f 41/73/31 43/76/31 44/75/31 42/74/31
f 43/73/32 47/76/32 48/75/32 44/74/32
f 47/77/33 45/80/33 46/79/33 48/78/33
f 45/76/34 41/73/34 42/74/34 46/75/34
f 43/74/35 41/73/35 45/76/35 47/75/35
f 48/75/36 46/76/36 42/73/36 44/74/36
